<?xml version="1.0" standalone="no"?>
<!DOCTYPE svg PUBLIC "-//W3C//DTD SVG 1.1//EN" "http://www.w3.org/Graphics/SVG/1.1/DTD/svg11.dtd" >
<svg xmlns="http://www.w3.org/2000/svg">
<metadata>Generated by IcoMoon</metadata>
<defs>
<font id="icomoon" horiz-adv-x="1024">
<font-face units-per-em="1024" ascent="896" descent="-128" />
<missing-glyph horiz-adv-x="1024" />
<glyph unicode="&#x20;" horiz-adv-x="0" d="" />
<glyph unicode="&#xe001;" glyph-name="error_outline" d="M512 42c188 0 342 154 342 342s-154 342-342 342-342-154-342-342 154-342 342-342zM512 810c236 0 426-190 426-426s-190-426-426-426-426 190-426 426 190 426 426 426zM470 598h84v-256h-84v256zM470 256h84v-86h-84v86z" />
<glyph unicode="&#xe038;" glyph-name="play_circle_filled" d="M426 192l256 192-256 192v-384zM512 810c236 0 426-190 426-426s-190-426-426-426-426 190-426 426 190 426 426 426z" />
<glyph unicode="&#xe04f;" glyph-name="volume_off" d="M512 726v-180l-90 90zM182 768l714-714-54-54-88 88c-46-36-98-64-156-78v88c36 10 68 28 96 50l-182 182v-288l-214 214h-170v256h202l-202 202zM810 384c0 136-88 250-212 286v88c172-38 298-192 298-374 0-64-16-126-44-178l-64 66c14 34 22 72 22 112zM704 384c0-10 0-18-2-26l-104 104v94c64-32 106-96 106-172z" />
<glyph unicode="&#xe050;" glyph-name="volume_up" d="M598 758c172-38 298-192 298-374s-126-336-298-374v88c124 36 212 150 212 286s-88 250-212 286v88zM704 384c0-76-42-140-106-172v344c64-32 106-96 106-172zM128 512h170l214 214v-684l-214 214h-170v256z" />
<glyph unicode="&#xe0de;" glyph-name="phonelink_setup" d="M810 854c46 0 86-40 86-86v-768c0-46-40-86-86-86h-426c-46 0-86 40-86 86v128h86v-86h426v684h-426v-86h-86v128c0 46 40 86 86 86h426zM342 298c46 0 84 40 84 86s-38 86-84 86-86-40-86-86 40-86 86-86zM504 362l46-38c4-4 8-8 4-12l-42-74c-4-4-8-4-12-4l-56 22c-12-8-26-18-38-22l-10-54c-4-4-8-10-12-10h-86c-4 0-12 6-8 10l-8 54c-12 4-26 14-38 22l-60-18c-4-4-10 2-14 6l-42 72c0 4 0 8 4 16l48 34v44l-48 34c-4 4-8 8-4 12l42 74c4 4 10 4 14 4l54-22c12 8 28 18 40 22l8 54c4 4 8 10 12 10h86c8 0 12-6 12-10l10-54c12-4 26-14 38-22l56 18c4 4 8-2 12-6l42-72c0-4 0-8-4-12l-46-34v-44z" />
<glyph unicode="&#xe145;" glyph-name="add" d="M810 342h-256v-256h-84v256h-256v84h256v256h84v-256h256v-84z" />
<glyph unicode="&#xe15b;" glyph-name="remove" d="M810 342h-596v84h596v-84z" />
<glyph unicode="&#xe227;" glyph-name="attach_money" d="M504 430c96-26 200-64 200-186 0-88-66-136-150-152v-92h-128v92c-82 18-150 70-156 164h94c4-50 38-90 126-90 94 0 116 46 116 76 0 40-22 78-128 104-120 28-200 78-200 176 0 82 66 136 148 154v92h128v-94c90-22 136-88 138-162h-94c-2 54-32 90-108 90-72 0-114-34-114-80 0-40 32-66 128-92z" />
<glyph unicode="&#xe313;" glyph-name="keyboard_arrow_down" d="M316 562l196-196 196 196 60-60-256-256-256 256z" />
<glyph unicode="&#xe316;" glyph-name="keyboard_arrow_up" d="M316 238l-60 60 256 256 256-256-60-60-196 196z" />
<glyph unicode="&#xe324;" glyph-name="phone_android" d="M736 128v598h-448v-598h448zM598 0v42h-172v-42h172zM682 854c70 0 128-58 128-128v-684c0-70-58-128-128-128h-340c-70 0-128 58-128 128v684c0 70 58 128 128 128h340z" />
<glyph unicode="&#xe408;" glyph-name="navigate_before" d="M658 580l-196-196 196-196-60-60-256 256 256 256z" />
<glyph unicode="&#xe409;" glyph-name="navigate_next" d="M426 640l256-256-256-256-60 60 196 196-196 196z" />
<glyph unicode="&#xe416;" glyph-name="portrait" d="M810 86v596h-596v-596h596zM810 768c46 0 86-40 86-86v-596c0-46-40-86-86-86h-596c-46 0-86 40-86 86v596c0 46 40 86 86 86h596zM704 202v-32h-384v32c0 64 128 96 192 96s192-32 192-96zM512 374c-52 0-96 44-96 96s44 96 96 96 96-44 96-96-44-96-96-96z" />
<glyph unicode="&#xe5c4;" glyph-name="arrow_back" d="M854 426v-84h-520l238-240-60-60-342 342 342 342 60-60-238-240h520z" />
<glyph unicode="&#xe5c5;" glyph-name="arrow_drop_down" d="M298 470h428l-214-214z" />
<glyph unicode="&#xe5c7;" glyph-name="arrow_drop_up" d="M298 298l214 214 214-214h-428z" />
<glyph unicode="&#xe5c8;" glyph-name="arrow_forward" d="M512 726l342-342-342-342-60 60 238 240h-520v84h520l-238 240z" />
<glyph unicode="&#xe5c9;" glyph-name="cancel" d="M726 230l-154 154 154 154-60 60-154-154-154 154-60-60 154-154-154-154 60-60 154 154 154-154zM512 810c236 0 426-190 426-426s-190-426-426-426-426 190-426 426 190 426 426 426z" />
<glyph unicode="&#xe5ca;" glyph-name="check" d="M384 206l452 452 60-60-512-512-238 238 60 60z" />
<glyph unicode="&#xe5cd;" glyph-name="close" d="M810 622l-238-238 238-238-60-60-238 238-238-238-60 60 238 238-238 238 60 60 238-238 238 238z" />
<glyph unicode="&#xe5d5;" glyph-name="refresh" d="M754 626l100 100v-300h-300l138 138c-46 46-110 76-180 76-142 0-256-114-256-256s114-256 256-256c112 0 208 70 242 170h88c-38-148-170-256-330-256-188 0-340 154-340 342s152 342 340 342c94 0 180-38 242-100z" />
<glyph unicode="&#xe5d8;" glyph-name="arrow_upward" d="M170 384l342 342 342-342-62-60-238 238v-520h-84v520l-240-238z" />
<glyph unicode="&#xe5db;" glyph-name="arrow_downward" d="M854 384l-342-342-342 342 62 60 238-238v520h84v-520l240 238z" />
<glyph unicode="&#xe63b;" glyph-name="personal_video" d="M896 170v512h-768v-512h768zM896 768c46 0 86-38 86-86l-2-512c0-46-38-84-84-84h-214v-86h-340v86h-214c-48 0-86 38-86 84v512c0 48 38 86 86 86h768z" />
<glyph unicode="&#xe7f0;" glyph-name="group_add" d="M554 342c86 0 256-42 256-128v-86h-512v86c0 86 170 128 256 128zM838 334c86-14 186-54 186-120v-86h-128v86c0 50-22 88-58 120zM554 426c-70 0-128 58-128 128s58 128 128 128 128-58 128-128-58-128-128-128zM768 426c-14 0-26 2-38 6 24 34 38 76 38 122s-14 88-38 122c12 4 24 6 38 6 70 0 128-58 128-128s-58-128-128-128zM342 470v-86h-128v-128h-86v128h-128v86h128v128h86v-128h128z" />
<glyph unicode="&#xe7f4;" glyph-name="notifications" d="M768 214l86-86v-42h-684v42l86 86v212c0 132 70 240 192 270v30c0 36 28 64 64 64s64-28 64-64v-30c122-30 192-140 192-270v-212zM512-42c-48 0-86 38-86 84h172c0-46-40-84-86-84z" />
<glyph unicode="&#xe7f5;" glyph-name="notifications_none" d="M682 170v256c0 106-64 192-170 192s-170-86-170-192v-256h340zM768 214l86-86v-42h-684v42l86 86v212c0 132 70 240 192 270v30c0 36 28 64 64 64s64-28 64-64v-30c122-30 192-140 192-270v-212zM512-42c-46 0-86 38-86 84h172c0-46-40-84-86-84z" />
<glyph unicode="&#xe7fd;" glyph-name="person" d="M512 298c114 0 342-56 342-170v-86h-684v86c0 114 228 170 342 170zM512 384c-94 0-170 76-170 170s76 172 170 172 170-78 170-172-76-170-170-170z" />
<glyph unicode="&#xe7fe;" glyph-name="person_add" d="M640 298c114 0 342-56 342-170v-86h-684v86c0 114 228 170 342 170zM256 470h128v-86h-128v-128h-86v128h-128v86h128v128h86v-128zM640 384c-94 0-170 76-170 170s76 172 170 172 170-78 170-172-76-170-170-170z" />
<glyph unicode="&#xe7ff;" glyph-name="person_outline" d="M512 342c114 0 342-58 342-172v-128h-684v128c0 114 228 172 342 172zM512 726c94 0 170-78 170-172s-76-170-170-170-170 76-170 170 76 172 170 172zM512 260c-126 0-260-62-260-90v-46h520v46c0 28-134 90-260 90zM512 644c-50 0-90-40-90-90s40-88 90-88 90 38 90 88-40 90-90 90z" />
<glyph unicode="&#xe80d;" glyph-name="share" d="M768 210c68 0 124-56 124-124s-56-126-124-126-124 58-124 126c0 10 0 20 2 28l-302 176c-24-22-54-34-88-34-70 0-128 58-128 128s58 128 128 128c34 0 64-12 88-34l300 174c-2 10-4 20-4 30 0 70 58 128 128 128s128-58 128-128-58-128-128-128c-34 0-64 14-88 36l-300-176c2-10 4-20 4-30s-2-20-4-30l304-176c22 20 52 32 84 32z" />
<glyph unicode="&#xe838;" glyph-name="star" d="M512 160l-264-160 70 300-232 202 306 26 120 282 120-282 306-26-232-202 70-300z" />
<glyph unicode="&#xe859;" glyph-name="android" d="M640 682v44h-42v-44h42zM426 682v44h-42v-44h42zM662 804c64-46 106-122 106-206h-512c0 84 40 160 104 206l-56 56c-8 8-8 22 0 30s22 8 30 0l64-64c34 18 74 28 114 28s78-10 112-28l64 64c8 8 22 8 30 0s8-22 0-30zM874 554c36 0 64-28 64-64v-298c0-36-28-64-64-64s-64 28-64 64v298c0 36 28 64 64 64zM150 554c36 0 64-28 64-64v-298c0-36-28-64-64-64s-64 28-64 64v298c0 36 28 64 64 64zM256 128v426h512v-426c0-24-18-42-42-42h-44v-150c0-36-28-64-64-64s-64 28-64 64v150h-84v-150c0-36-28-64-64-64s-64 28-64 64v150h-44c-24 0-42 18-42 42z" />
<glyph unicode="&#xe887;" glyph-name="help" d="M642 416c24 24 40 58 40 96 0 94-76 170-170 170s-170-76-170-170h84c0 46 40 86 86 86s86-40 86-86c0-24-10-44-26-60l-52-54c-30-32-50-74-50-120v-22h84c0 64 20 88 50 120zM554 86v84h-84v-84h84zM512 810c236 0 426-190 426-426s-190-426-426-426-426 190-426 426 190 426 426 426z" />
<glyph unicode="&#xe888;" glyph-name="highlight_off" d="M512 42c188 0 342 154 342 342s-154 342-342 342-342-154-342-342 154-342 342-342zM512 810c236 0 426-190 426-426s-190-426-426-426-426 190-426 426 190 426 426 426zM622 554l60-60-110-110 110-110-60-60-110 110-110-110-60 60 110 110-110 110 60 60 110-110z" />
<glyph unicode="&#xe88a;" glyph-name="home" d="M426 42h-212v342h-128l426 384 426-384h-128v-342h-212v256h-172v-256z" />
<glyph unicode="&#xe88b;" glyph-name="hourglass_empty" d="M512 406l170 170v150h-340v-150zM682 192l-170 170-170-170v-150h340v150zM256 810h512v-256l-170-170 170-170v-256h-512v256l170 170-170 170v256z" />
<glyph unicode="&#xe898;" glyph-name="lock_open" d="M768 42v428h-512v-428h512zM768 554c46 0 86-38 86-84v-428c0-46-40-84-86-84h-512c-46 0-86 38-86 84v428c0 46 40 84 86 84h388v86c0 72-60 132-132 132s-132-60-132-132h-82c0 118 96 214 214 214s214-96 214-214v-86h42zM512 170c-46 0-86 40-86 86s40 86 86 86 86-40 86-86-40-86-86-86z" />
<glyph unicode="&#xe899;" glyph-name="lock_outline" d="M768 42v428h-512v-428h512zM380 640v-86h264v86c0 72-60 132-132 132s-132-60-132-132zM768 554c46 0 86-38 86-84v-428c0-46-40-84-86-84h-512c-46 0-86 38-86 84v428c0 46 40 84 86 84h42v86c0 118 96 214 214 214s214-96 214-214v-86h42zM512 170c-46 0-86 40-86 86s40 86 86 86 86-40 86-86-40-86-86-86z" />
<glyph unicode="&#xe8b5;" glyph-name="schedule" d="M534 598v-224l192-114-32-54-224 136v256h64zM512 42c188 0 342 154 342 342s-154 342-342 342-342-154-342-342 154-342 342-342zM512 810c236 0 426-190 426-426s-190-426-426-426-426 190-426 426 190 426 426 426z" />
<glyph unicode="&#xe8b6;" glyph-name="search" d="M406 298c106 0 192 86 192 192s-86 192-192 192-192-86-192-192 86-192 192-192zM662 298l212-212-64-64-212 212v34l-12 12c-48-42-112-66-180-66-154 0-278 122-278 276s124 278 278 278 276-124 276-278c0-68-24-132-66-180l12-12h34z" />
<glyph unicode="&#xe8f4;" glyph-name="visibility" d="M512 512c70 0 128-58 128-128s-58-128-128-128-128 58-128 128 58 128 128 128zM512 170c118 0 214 96 214 214s-96 214-214 214-214-96-214-214 96-214 214-214zM512 704c214 0 396-132 470-320-74-188-256-320-470-320s-396 132-470 320c74 188 256 320 470 320z" />
<glyph unicode="&#xe8fd;" glyph-name="help_outline" d="M512 640c94 0 170-76 170-170 0-106-128-118-128-214h-84c0 138 128 128 128 214 0 46-40 84-86 84s-86-38-86-84h-84c0 94 76 170 170 170zM512 42c188 0 342 154 342 342s-154 342-342 342-342-154-342-342 154-342 342-342zM512 810c236 0 426-190 426-426s-190-426-426-426-426 190-426 426 190 426 426 426zM470 128v86h84v-86h-84z" />
<glyph unicode="&#xe900;" glyph-name="qa" horiz-adv-x="716" d="M358.147 896c197.116 0 358.171-161.079 358.171-358.147 0-269.24-358.171-665.853-358.171-665.853s-358.147 396.613-358.147 665.853c0 197.116 161.079 358.147 358.147 358.147zM472.823 708.518c-31.959 23.039-72.131 34.559-120.46 34.559-36.76 0-67.793-8.108-93.010-24.347-40.010-25.387-61.262-68.541-63.837-129.388h92.717c0 17.751 5.183 34.754 15.517 51.229 10.35 16.451 27.897 24.672 52.651 24.672 25.176 0 42.544-6.678 51.976-20.025 9.521-13.356 14.249-28.141 14.249-44.34 0-14.168-7.076-27.077-15.614-38.808-4.696-6.84-10.87-13.144-18.539-18.888 0 0-50.27-32.227-72.335-58.158-12.795-14.988-13.94-37.524-15.086-69.743-0.057-2.299 0.821-7.068 8.831-7.068s64.958 0 72.075 0c7.181 0 8.692 5.289 8.782 7.669 0.496 11.715 1.803 17.751 3.924 24.542 4.046 12.819 15.086 23.998 27.475 33.625l25.501 17.588c23.047 17.962 41.44 32.682 49.563 44.25 13.843 18.953 23.608 42.341 23.608 70.1-0.057 45.307-16.012 79.435-47.987 102.531zM350.884 352.67c-31.943 0.991-58.297-21.146-59.304-55.803-0.983-34.616 24.055-57.509 56.022-58.435 33.332-0.991 59.011 20.375 60.051 55.047 0.918 34.648-23.397 58.199-56.769 59.19z" />
<glyph unicode="&#xe901;" glyph-name="pictures" d="M896 640v-512c0-35.328-28.672-64-64-64h-672c0-35.328 28.672-64 64-64h672c35.328 0 64 28.672 64 64v512c0 35.328-28.672 64-64 64zM864 160v512c0 35.328-28.672 64-64 64h-672c-35.328 0-64-28.672-64-64v-512c0-35.328 28.672-64 64-64h672c35.328 0 64 28.672 64 64zM128 672h672v-512h-672v512zM500.064 342.048l-95.616 101.792-95.648-163.328-71.744 74.976-77.728-164.128h609.76l-137.504 359.84-131.52-209.152zM256 448c35.328 0 64 28.672 64 64s-28.672 64-64 64-64-28.672-64-64 28.672-64 64-64z" />
<glyph unicode="&#xe902;" glyph-name="chat" d="M801.344 298.496v399.584c0 39.488-32 71.552-71.552 71.552h-626.272c-39.52 0.032-71.552-32.032-71.552-71.552v-399.584c0-39.52 32.032-71.552 71.552-71.552h119.328v-164.384l182.528 164.384h324.384c39.584 0 71.584 32.032 71.584 71.552zM920.48 612.544h-89.536c0 0 0-319.104 0-349.088s-38.912-68.544-68.896-68.544-350.24-1.76-350.24-1.76c0-39.52 32.032-63.552 71.552-63.552h137.888l179.904-163.264-0.224 163.264h119.552c39.552 0 71.552 24.032 71.552 63.552v349.824c0 39.488-32 69.568-71.552 69.568z" />
<glyph unicode="&#xe903;" glyph-name="funds" d="M512.002-146.286c282.323 0 512.002 229.678 512.002 512.002s-229.682 511.998-512.002 511.998-512.002-229.678-512.002-512.002 229.678-511.998 512.002-511.998zM512.002 817.479c249.13 0 451.763-202.63 451.763-451.766 0-249.133-202.633-451.763-451.763-451.763-249.133 0-451.766 202.63-451.766 451.766 0 249.133 202.63 451.763 451.766 451.763zM496.036 156.519c-47.105 0-90.833 16.444-121.132 37.225l-20.179-58.009c29.458-21.622 79.933-37.221 128.663-38.069v-87.463h53.010v90.055c86.616 14.759 132.877 78.846 132.877 147.273 0 77.101-43.732 122.159-130.351 158.479-73.186 31.203-104.266 53.672-104.266 98.726 0 34.636 24.396 74.449 89.148 74.449 53.854 0 88.307-19.033 105.957-29.455l21.023 57.164c-24.396 14.759-58.912 28.551-109.327 30.299v84.090h-52.166v-87.523c-77.404-12.951-126.974-67.523-126.974-139.444 0-75.356 53.007-115.17 138.782-149.806 62.223-25.959 95.051-55.416 95.051-103.063-0.063-49.391-40.421-84.931-100.115-84.931z" />
<glyph unicode="&#xe904;" glyph-name="funds2" d="M222.001 655.713c74.201 74.201 176.8 120.199 290 120.199s215.8-46 290-120.199c74.201-74.201 120.201-176.8 120.201-290s-46-215.8-120.201-290-176.8-120.201-290-120.201-215.8 46-290 120.201c-74.201 74.201-120.199 176.8-120.199 290s45.998 215.8 120.199 290zM1024 365.713c0 141.401-57.399 269.4-149.999 362s-220.599 150.001-362 150.001-269.402-57.401-362-150.001c-92.6-92.598-150.001-220.599-150.001-362s57.401-269.4 150.001-362.002c92.6-92.6 220.599-149.999 362-149.999s269.4 57.399 362.002 149.999 149.997 220.601 149.997 362.002zM393.599 482.314c0 36.401 12.8 65.801 38.601 88.2 17.2 15.199 42.801 24.4 76.601 27.799v24.4h30.2v-24.4c29.6-2.801 53.201-11.599 70.6-26 22.399-18.399 35.799-43.999 40.199-76.4l-52.799-8c-3 19.999-9.201 35.399-18.801 46-9.4 10.601-22.599 17.8-39.199 21.2v-147.2c25.6-6.401 42.801-11.6 51-15.201 15.799-7.001 28.8-15.401 38.8-25.4s17.801-22 23.201-35.801c5.401-13.8 8.2-28.8 8.2-44.799 0-35.401-11.399-64.801-33.798-88.6-22.401-23.801-51.601-36.401-87.4-38v-51.601h-30.2v51.002c-25.6 3.2-46.2 9-62.2 17.2s-29.8 21.6-41.4 39.799c-11.6 18.399-18.399 40.801-20.2 67.2l51.401 9.6c4-27.399 11.001-47.6 21-60.399 14.399-18.199 31.601-28.199 51.6-30.4v162.399c-21 4-42.398 12.2-64.4 24.4-16.2 9.2-28.8 21.6-37.6 37.8-8.8 15.999-13.2 34.2-13.2 54.8l-0.205 0.402zM888 365.713c0 103.801-42 197.8-110.201 265.8-68 68-161.999 110.2-265.8 110.2s-197.8-42-265.8-110.2c-68.001-68-110.201-162.001-110.201-265.8 0-103.801 42-197.8 110.201-265.8 68-68.001 161.999-110.201 265.8-110.201s197.8 42 265.8 110.201c68.001 68 110.201 161.999 110.201 265.8zM508.8 414.514v141.199c-19.801-3-35.601-10.999-47.001-23.801-11.4-12.8-17.2-28.001-17.2-45.8 0-17.4 4.8-31.999 14.599-43.599 9.799-11.8 26.201-21.2 49.4-28.001h0.202zM607.401 283.514c0 18.399-4.6 33.4-13.801 44.601s-27.601 21.4-55 30.201v-155.4c19.801 2.399 36.201 10.999 49.201 25.798s19.401 33.002 19.401 54.8h0.2z" />
<glyph unicode="&#xe905;" glyph-name="qr-code" horiz-adv-x="1054" d="M359.242 518.472h-329.358v329.358h329.358v-329.358zM34.97 523.558h319.185v319.185h-319.185v-319.185zM359.242-146.286h-329.358v329.358h329.358v-329.358zM34.97-141.199h319.185v319.185h-319.185v-319.185zM1024 518.472h-329.358v329.358h329.358v-329.358zM699.728 523.558h319.185v319.185h-319.185v-319.185zM113.496 764.218h162.136v-162.136h-162.136v162.136zM778.252 764.218h162.136v-162.136h-162.136v162.136zM113.496 99.462h162.136v-162.136h-162.136v162.136zM0 472.374h81.069v-81.069h-81.069v81.069zM81.069 391.306h81.069v-81.069h-81.069v81.069zM162.136 472.374h81.069v-81.069h-81.069v81.069zM243.205 310.238h81.069v-81.069h-81.069v81.069zM324.272 391.306h81.069v-81.069h-81.069v81.069zM405.34 472.374h81.069v-81.069h-81.069v81.069zM486.408 553.442h81.069v-81.069h-81.069v81.069zM405.34 634.509h81.069v-81.069h-81.069v81.069zM486.408 715.578h81.069v-81.069h-81.069v81.069zM567.476 796.645h81.069v-81.069h-81.069v81.069zM486.408 877.714h81.069v-81.069h-81.069v81.069zM405.34 796.645h81.069v-81.069h-81.069v81.069zM891.748 472.374h81.069v-81.069h-81.069v81.069zM729.612 472.374h81.069v-81.069h-81.069v81.069zM567.476 391.306h81.069v-81.069h-81.069v81.069zM810.679 391.306h81.069v-81.069h-81.069v81.069zM648.543 310.238h81.069v-81.069h-81.069v81.069zM486.408 310.238h81.069v-81.069h-81.069v81.069zM567.476 148.102h81.069v-81.069h-81.069v81.069zM567.476-14.034h81.069v-81.069h-81.069v81.069zM486.408 67.035h81.069v-81.069h-81.069v81.069zM729.612 148.102h81.069v-81.069h-81.069v81.069zM810.679 67.035h81.069v-81.069h-81.069v81.069zM729.612-14.034h81.069v-81.069h-81.069v81.069zM972.815 148.102h81.069v-81.069h-81.069v81.069zM972.815-14.034h81.069v-81.069h-81.069v81.069zM891.748 229.171h81.069v-81.069h-81.069v81.069z" />
<glyph unicode="&#xe906;" glyph-name="recharge" horiz-adv-x="1134" d="M1129.514 400.226c-6.616 8.51-18.91 9.455-26.475 2.837l-25.529-20.801c-8.507 275.149-234.489 495.453-511.527 495.453-234.489 0-438.722-158.848-496.399-385.773-2.837-10.401 3.782-20.801 13.237-22.693 10.401-2.837 20.801 3.782 22.693 13.237 55.786 209.906 243.945 357.407 461.415 357.407 255.291 0 464.251-203.287 473.706-456.687l-24.584 19.856c-8.51 6.619-19.854 5.673-26.475-2.837-6.619-8.51-5.673-19.856 2.837-26.475l55.786-46.331c3.782-2.837 7.564-4.725 12.292-4.725s8.512 1.889 12.294 4.725l55.783 46.331c6.619 6.619 7.564 17.965 0.946 26.475zM1049.144 262.179c-10.401 2.839-20.804-3.78-22.693-13.235-52.949-210.851-242.054-357.409-459.524-357.409-255.291 0-464.251 203.287-473.706 456.687l24.584-19.856c8.51-6.616 19.856-5.671 26.475 2.839s5.673 19.854-2.837 26.475l-54.84 45.383c-6.619 5.673-17.019 5.673-23.638 0l-55.786-46.331c-8.51-6.616-9.455-18.91-2.837-26.475 3.782-4.73 9.455-6.619 14.183-6.619 3.782 0 8.51 0.946 12.292 4.728l25.529 20.804c8.51-275.149 234.489-495.456 511.527-495.456 234.489 0 438.722 158.85 496.399 385.775 0.946 9.455-4.725 19.856-15.128 22.69zM559.818 219.633c-34.66 0-66.835 12.099-89.129 27.39l-14.848-42.683c21.675-15.909 58.815-27.388 94.67-28.011v-64.356h39.005v66.263c63.732 10.86 97.771 58.015 97.771 108.364 0 56.731-32.178 89.885-95.913 116.61-53.851 22.959-76.719 39.492-76.719 72.643 0 25.485 17.951 54.78 65.596 54.78 39.626 0 64.977-14.004 77.964-21.673l15.469 42.062c-17.951 10.86-43.348 21.008-80.443 22.294v61.874h-38.384v-64.4c-56.954-9.529-93.428-49.684-93.428-102.603 0-55.447 39.003-84.742 102.116-110.227 45.784-19.1 69.938-40.776 69.938-75.834-0.046-36.342-29.742-62.492-73.665-62.492z" />
<glyph unicode="&#xe907;" glyph-name="withdrawal" horiz-adv-x="731" d="M376.901-146.286h-23.15l-109.637 109.641 23.116 23.116 98.096-98.096 98.096 98.096 23.118-23.116zM348.976 114.943h32.701v-245.239h-32.701v245.239zM365.326 147.063c201.445 0 365.326 163.881 365.326 365.326s-163.881 365.326-365.326 365.326-365.326-163.881-365.326-365.326 163.881-365.326 365.326-365.326zM365.326 834.735c177.763 0 322.346-144.583 322.346-322.346s-144.583-322.346-322.346-322.346-322.346 144.583-322.346 322.346c0 177.763 144.583 322.346 322.346 322.346zM353.936 363.121c-33.61 0-64.813 11.733-86.432 26.561l-14.398-41.389c21.019-15.43 57.035-26.561 91.804-27.163v-62.406h37.822v64.254c61.805 10.53 94.813 56.26 94.813 105.085 0 55.014-31.203 87.162-93.009 113.079-52.218 22.263-74.396 38.295-74.396 70.443 0 24.713 17.407 53.123 63.61 53.123 38.424 0 63.006-13.582 75.601-21.017l15 40.788c-17.407 10.53-42.032 20.372-78.008 21.619v59.999h-37.219v-62.449c-55.229-9.241-90.601-48.18-90.601-99.498 0-53.767 37.822-82.177 99.025-106.89 44.398-18.524 67.822-39.541 67.822-73.538-0.045-35.243-28.841-60.601-71.434-60.601z" />
<glyph unicode="&#xe908;" glyph-name="game" horiz-adv-x="881" d="M544 365.714l330.932 330.922c8.268 8.32 8.268 21.846 0 30.166-96.842 97.322-225.738 150.912-362.932 150.912-282.314 0-512-229.676-512-512s229.674-512 512-512c137.268 0 266.122 53.578 362.932 150.912 8.268 8.351 8.268 21.834 0 30.164l-330.932 330.924zM405.302 493.672c-58.796 0-106.668 47.872-106.668 106.666 0 58.838 47.872 106.666 106.668 106.666 58.751 0 106.666-47.83 106.666-106.666 0.032-58.794-47.872-106.666-106.666-106.666z" />
<glyph unicode="&#xe909;" glyph-name="warning2" d="M1010.432 57.248l-383.968 768c-21.664 43.36-65.952 70.752-114.464 70.752s-92.8-27.392-114.464-70.752l-383.968-768c-19.84-39.68-17.728-86.816 5.6-124.576 23.328-37.696 64.512-60.672 108.864-60.672h767.904c44.384 0 85.568 22.976 108.864 60.672 23.328 37.76 25.44 84.896 5.632 124.576zM575.936 32c0-17.696-14.304-32-32-32h-64c-17.696 0-32 14.304-32 32v64c0 17.696 14.304 32 32 32h64c17.696 0 32-14.304 32-32v-64zM575.936 288c0-17.696-14.304-32-32-32h-64c-17.696 0-32 14.304-32 32v320c0 17.664 14.304 32 32 32h64c17.696 0 32-14.336 32-32v-320z" />
<glyph unicode="&#xe90a;" glyph-name="new-message" d="M930.509 776.909c-56.422 56.422-106.598 39.782-106.598 39.782l-442.317-441.958-74.394-221.133 221.030 74.445 442.061 442.266c0 0 16.589 50.176-39.782 106.598zM542.976 276.224l-24.115-24.064-75.418-25.6c-5.325 12.288-11.981 24.422-25.498 37.888-13.517 13.517-25.6 20.173-37.888 25.498l25.6 75.418 24.115 24.064c0 0 39.731 4.557 78.694-34.458 39.014-38.963 34.509-78.746 34.509-78.746zM819.2 0h-665.6v665.6h256l102.4 102.4h-358.4c-56.32 0-102.4-46.080-102.4-102.4v-665.6c0-56.32 46.080-102.4 102.4-102.4h665.6c56.32 0 102.4 46.080 102.4 102.4v358.4l-102.4-102.4v-256z" />
<glyph unicode="&#xe90b;" glyph-name="calendar" d="M864-96h-704c-35.328 0-64 28.672-64 64v704c0 35.36 28.672 64 64 64h64v-32c0-53.024 42.976-96 96-96 52.992 0 96 42.976 96 96v32h192v-32c0-53.024 43.008-96 96-96s96 42.976 96 96v32h64c35.328 0 64-28.64 64-64v-704c0-35.328-28.672-64-64-64zM864 512h-704v-544h704v544zM320 352h-96v96h96v-96zM320 192h-96v96h96v-96zM320 32h-96v96h96v-96zM480 352h-96v96h96v-96zM480 192h-96v96h96v-96zM480 32h-96v96h96v-96zM640 352h-96v96h96v-96zM640 192h-96v96h96v-96zM640 32h-96v96h96v-96zM800 352h-96v96h96v-96zM800 192h-96v96h96v-96zM800 32h-96v96h96v-96zM703.008 640c-34.816 0-63.008 28.224-63.008 63.008v65.984c0 34.816 28.192 63.008 63.008 63.008s63.008-28.192 63.008-63.008v-65.984c0-34.784-28.192-63.008-63.008-63.008zM319.008 640c-34.816 0-63.008 28.224-63.008 63.008v65.984c0 34.816 28.192 63.008 63.008 63.008s63.008-28.192 63.008-63.008v-65.984c0-34.784-28.224-63.008-63.008-63.008z" />
<glyph unicode="&#xe90c;" glyph-name="sitemap" d="M767.104 33.12h-95.68c-17.6 0-31.904 14.24-31.904 31.872v63.808c0 17.568 14.304 31.872 31.904 31.872h63.776v159.488h-223.264v-159.488h31.872c17.632 0 31.904-14.304 31.904-31.872v-63.808c0-17.632-14.272-31.872-31.904-31.872h-95.68c-17.6 0-31.872 14.24-31.872 31.872v63.808c0 17.568 14.272 31.872 31.872 31.872h31.936v159.488h-223.296v-159.488h63.776c17.632 0 31.904-14.304 31.904-31.872v-63.808c0-17.632-14.272-31.872-31.904-31.872h-95.648c-17.632 0-31.904 14.24-31.904 31.872v63.808c0 17.568 14.272 31.872 31.904 31.872v191.36h255.168v127.584h-95.68c-17.632 0-31.904 14.272-31.904 31.904v159.488c0 17.6 14.272 31.904 31.904 31.904h223.264c17.632 0 31.872-14.272 31.872-31.904v-159.456c0-17.6-14.24-31.904-31.872-31.904h-95.68v-127.584h255.168v-191.36c17.6 0 31.904-14.304 31.904-31.872v-63.808c-0.032-17.664-14.368-31.904-31.936-31.904zM224.896 128.8v-63.808h95.648v63.808h-95.648zM607.616 511.52v159.488h-223.264v-159.456h223.264zM448.128 128.8v-63.808h95.68v63.808h-95.68zM767.104 128.8h-95.68v-63.808h95.68v63.808z" />
<glyph unicode="&#xe90d;" glyph-name="envelope" d="M512.48 292.448l-130.304 106.976-283.584-334.816h828.032l-283.616 338.144-130.528-110.304zM957.632 703.392h-890.080l445.056-374.336 445.024 374.336zM662.56 419.616l297.312-354.688v606.464l-297.312-251.776zM64.128 671.392v-606.464l297.312 354.688-297.312 251.776z" />
<glyph unicode="&#xe90e;" glyph-name="add2" d="M848 32h-96c-8.832 0-16 7.168-16 16s7.168 16 16 16h80v80c0 8.832 7.168 16 16 16 8.8 0 16-7.168 16-16v-96c0-8.832-7.2-16-16-16zM848 224c-8.832 0-16 7.168-16 16v96c0 8.832 7.168 16 16 16 8.8 0 16-7.168 16-16v-96c0-8.832-7.2-16-16-16zM848 416c-8.832 0-16 7.168-16 16v96c0 8.832 7.168 16 16 16 8.8 0 16-7.168 16-16v-96c0-8.832-7.2-16-16-16zM848 608c-8.832 0-16 7.168-16 16v80h-80c-8.832 0-16 7.168-16 16s7.168 16 16 16h96c8.8 0 16-7.168 16-16v-96c0-8.832-7.2-16-16-16zM656 32h-96c-8.832 0-16 7.168-16 16s7.168 16 16 16h96c8.8 0 16-7.168 16-16s-7.2-16-16-16zM656 704h-96c-8.832 0-16 7.168-16 16s7.168 16 16 16h96c8.8 0 16-7.168 16-16s-7.2-16-16-16zM638.016 416c17.664 0 32-14.304 32-32 0-17.664-14.336-32-32-32h-96v-96c0-17.664-14.336-32-32-32-17.696 0-32 14.336-32 32v96h-96c-17.664 0-32 14.336-32 32 0 17.696 14.304 32 32 32h96v96c0 17.696 14.304 32 32 32 17.664 0 32-14.304 32-32v-96h96zM464 704h-96c-8.832 0-16 7.168-16 16s7.168 16 16 16h96c8.8 0 16-7.168 16-16s-7.2-16-16-16zM272 32h-96c-8.832 0-16 7.168-16 16v96c0 8.832 7.168 16 16 16s16-7.168 16-16v-80h80c8.832 0 16-7.168 16-16s-7.168-16-16-16zM272 704h-80v-80c0-8.832-7.168-16-16-16s-16 7.168-16 16v96c0 8.832 7.168 16 16 16h96c8.832 0 16-7.168 16-16s-7.168-16-16-16zM176 544c8.832 0 16-7.168 16-16v-96c0-8.832-7.168-16-16-16s-16 7.168-16 16v96c0 8.832 7.168 16 16 16zM176 352c8.832 0 16-7.168 16-16v-96c0-8.832-7.168-16-16-16s-16 7.168-16 16v96c0 8.832 7.168 16 16 16zM368 64h96c8.8 0 16-7.168 16-16s-7.2-16-16-16h-96c-8.832 0-16 7.168-16 16s7.168 16 16 16z" />
<glyph unicode="&#xe90f;" glyph-name="minus" d="M272 736h-96c-8.832 0-16-7.168-16-16v-96c0-8.832 7.168-16 16-16s16 7.168 16 16v80h80c8.832 0 16 7.168 16 16s-7.168 16-16 16zM368 704h96c8.8 0 16 7.168 16 16s-7.2 16-16 16h-96c-8.832 0-16-7.168-16-16s7.168-16 16-16zM656 736h-96c-8.832 0-16-7.168-16-16s7.168-16 16-16h96c8.8 0 16 7.168 16 16s-7.2 16-16 16zM848 736h-96c-8.832 0-16-7.168-16-16s7.168-16 16-16h80v-80c0-8.832 7.168-16 16-16 8.8 0 16 7.168 16 16v96c0 8.832-7.2 16-16 16zM848 544c-8.832 0-16-7.168-16-16v-96c0-8.832 7.168-16 16-16 8.8 0 16 7.168 16 16v96c0 8.832-7.2 16-16 16zM848 352c-8.832 0-16-7.168-16-16v-96c0-8.832 7.168-16 16-16 8.8 0 16 7.168 16 16v96c0 8.832-7.2 16-16 16zM848 160c-8.832 0-16-7.168-16-16v-80h-80c-8.832 0-16-7.168-16-16s7.168-16 16-16h96c8.8 0 16 7.168 16 16v96c0 8.832-7.2 16-16 16zM656 64h-96c-8.832 0-16-7.168-16-16s7.168-16 16-16h96c8.8 0 16 7.168 16 16s-7.2 16-16 16zM464 64h-96c-8.832 0-16-7.168-16-16s7.168-16 16-16h96c8.8 0 16 7.168 16 16s-7.2 16-16 16zM272 64h-80v80c0 8.832-7.168 16-16 16s-16-7.168-16-16v-96c0-8.832 7.168-16 16-16h96c8.832 0 16 7.168 16 16s-7.168 16-16 16zM176 224c8.832 0 16 7.168 16 16v96c0 8.832-7.168 16-16 16s-16-7.168-16-16v-96c0-8.832 7.168-16 16-16zM176 416c8.832 0 16 7.168 16 16v96c0 8.832-7.168 16-16 16s-16-7.168-16-16v-96c0-8.832 7.168-16 16-16zM382.016 352h256c17.696 0 32 14.336 32 32 0 17.696-14.304 32-32 32h-256c-17.696 0-32-14.304-32-32 0-17.664 14.304-32 32-32z" />
<glyph unicode="&#xe910;" glyph-name="pictures2" d="M896 640v-512c0-35.328-28.672-64-64-64h-672c0-35.328 28.672-64 64-64h672c35.328 0 64 28.672 64 64v512c0 35.328-28.672 64-64 64zM864 160v512c0 35.328-28.672 64-64 64h-672c-35.328 0-64-28.672-64-64v-512c0-35.328 28.672-64 64-64h672c35.328 0 64 28.672 64 64zM128 672h672v-512h-672v512zM500.064 342.048l-95.616 101.792-95.648-163.328-71.744 74.976-77.728-164.128h609.76l-137.504 359.84-131.52-209.152zM256 448c35.328 0 64 28.672 64 64s-28.672 64-64 64-64-28.672-64-64 28.672-64 64-64z" />
<glyph unicode="&#xe911;" glyph-name="creditcard" d="M960 768h-896c-35.328 0-64-28.672-64-64v-640c0-35.328 28.672-64 64-64h896c35.328 0 64 28.672 64 64v640c0 35.328-28.672 64-64 64zM96 704h832c17.696 0 32-14.304 32-32v-96h-896v96c0 17.696 14.304 32 32 32zM928 64h-832c-17.696 0-32 14.304-32 32v288h896v-288c0-17.696-14.304-32-32-32z" />
<glyph unicode="&#xe912;" glyph-name="history" d="M512 877.714c-282.401 0-512-229.597-512-512 0-282.401 229.599-512 512-512s512 229.599 512 512c0 133.262-54.2 251.6-138.182 341.333h76.121c17.138-0.242 31.228 13.454 31.471 30.59 0.242 17.138-13.456 31.228-30.592 31.471-0.291 0.004-0.586 0.004-0.877 0h-155.152c-0.97 0.045-1.939 0.045-2.909 0-15.992-1.507-28.191-14.968-28.121-31.030v-155.152c-0.242-17.136 13.456-31.228 30.59-31.471 17.138-0.242 31.228 13.456 31.471 30.592 0.004 0.293 0.004 0.586 0 0.879v84.848c75.871-79.589 124.121-184.114 124.121-302.061 0-248.861-201.078-449.939-449.939-449.939s-449.939 201.078-449.939 449.939c0 248.863 201.078 449.939 449.939 449.939 17.138 0.782 30.396 15.31 29.615 32.448-0.735 16.041-13.576 28.88-29.616 29.613zM508.606 769.593c-15.986-1.757-27.984-15.436-27.636-31.515v-62.061c-0.242-17.136 13.456-31.228 30.59-31.471 17.138-0.242 31.228 13.456 31.471 30.592 0.004 0.293 0.004 0.586 0 0.879v62.061c0.368 17.135-13.223 31.325-30.357 31.696-1.36 0.027-2.717-0.033-4.067-0.18zM508.606 598.926c-15.986-1.757-27.984-15.436-27.636-31.515v-201.697c0.066-8.204 3.378-16.048 9.212-21.818l170.667-170.667c11.947-12.288 31.595-12.565 43.883-0.617 12.29 11.949 12.565 31.597 0.617 43.885-0.283 0.289-0.57 0.576-0.863 0.853l-161.455 161.455v188.606c0.368 17.135-13.223 31.325-30.357 31.696-1.36 0.027-2.717-0.033-4.067-0.18zM136.727 396.745c-17.136-0.803-30.379-15.348-29.576-32.485s15.348-30.379 32.485-29.576h62.061c17.138-0.242 31.228 13.456 31.471 30.59 0.242 17.138-13.456 31.228-30.592 31.471-0.291 0.004-0.586 0.004-0.877 0h-62.063c-0.97 0.045-1.939 0.045-2.909 0zM819.394 396.745c-17.138-0.803-30.379-15.348-29.576-32.485s15.346-30.379 32.485-29.576h62.061c17.138-0.242 31.228 13.456 31.471 30.59 0.242 17.138-13.456 31.228-30.592 31.471-0.291 0.004-0.586 0.004-0.877 0h-62.061c-0.972 0.045-1.941 0.045-2.911 0zM508.606 86.926c-15.986-1.757-27.984-15.436-27.636-31.515v-62.061c-0.242-17.138 13.456-31.228 30.59-31.471 17.138-0.242 31.228 13.456 31.471 30.592 0.004 0.291 0.004 0.586 0 0.877v62.061c0.368 17.135-13.223 31.325-30.357 31.696-1.36 0.029-2.717-0.031-4.067-0.178z" />
<glyph unicode="&#xe913;" glyph-name="group-fulctuation" horiz-adv-x="2205" d="M376.514 262.746v376.514c-207.94 0-376.514-168.573-376.514-376.514 0-207.95 168.573-376.524 376.514-376.524 207.945 0 376.519 168.573 376.519 376.524 0 60.54-14.31 117.73-39.699 168.405l-336.819-168.405zM767.119 538.728c-61.818 123.389-189.414 208.109-336.819 208.109v-376.514l336.819 168.405zM1117.56 406.351h260.062c162.538 0 308.829-146.286 308.829-308.824v-211.305h-877.714v211.305c0 162.538 146.286 308.824 308.824 308.824zM1377.627 357.589h-260.062c-146.286 0-260.062-130.033-260.062-260.062v-162.538h780.186v162.538c0 130.028-130.033 260.062-260.062 260.062zM1247.593 910.222c130.033 0 243.81-113.776 243.81-243.81s-113.771-243.81-243.81-243.81c-130.028 0-243.805 113.776-243.805 243.81s113.771 243.81 243.805 243.81zM1247.593 861.46c-113.776 0-195.043-81.267-195.043-195.048 0-113.771 81.267-195.048 195.043-195.048 113.781 0 195.053 81.271 195.053 195.048-0.005 113.781-81.271 195.048-195.053 195.048zM1636.341 406.351h260.057c162.548 0 308.824-146.286 308.824-308.824v-211.305h-877.704v211.305c0 162.538 146.286 308.824 308.824 308.824zM1896.403 357.589h-260.057c-130.028 0-260.067-130.033-260.067-260.062v-162.538h780.195v162.538c-0.005 130.028-113.786 260.062-260.072 260.062zM1766.369 910.222c146.286 0 243.81-113.776 243.81-243.81s-97.524-243.81-243.81-243.81c-130.028 0-243.81 113.776-243.81 243.81s113.781 243.81 243.81 243.81zM1766.369 861.46c-97.524 0-195.043-81.267-195.043-195.048 0-113.771 97.524-195.048 195.043-195.048 113.781 0 195.043 81.271 195.043 195.048 0.005 113.781-81.262 195.048-195.043 195.048z" />
<glyph unicode="&#xe914;" glyph-name="balance-fulctuations" horiz-adv-x="1542" d="M0 8.733h1542.173v-155.019h-1542.173v155.019zM602.37 318.771h155.019v-232.529h-155.019v232.529zM834.899 628.809h155.019v-542.567h-155.019v542.567zM1067.427 396.281h155.019v-310.038h-155.019v310.038zM1299.956 861.338h155.019v-775.095h-155.019v775.095zM326.664 510.014c104.437-28.286 217.574-69.625 217.574-202.346 0-95.732-71.8-147.951-163.182-165.357v-100.084h-139.246v100.084c-89.206 19.581-163.182 76.151-169.707 178.41h102.259c4.35-54.392 41.339-97.909 137.071-97.909 102.262 0 126.195 50.042 126.195 82.678 0 43.514-23.933 84.854-139.248 113.137-130.545 30.461-217.574 84.854-217.574 191.465 0 89.206 71.8 147.951 161.004 167.534v100.087h139.248v-102.259c97.907-23.933 147.951-95.732 150.126-176.235h-102.259c-2.175 58.745-34.811 97.909-117.49 97.909-78.326 0-124.018-36.989-124.018-87.031-0.002-43.517 34.811-71.8 139.246-100.084z" />
<glyph unicode="&#xe915;" glyph-name="shuffle" d="M772.762 527.667h47.104v-146.534l204.134 206.029-204.186 206.080v-122.214h-47.104c-189.133 0-295.731-140.186-389.837-263.782-84.582-111.206-157.696-207.309-275.763-207.309h-107.11v-143.309h107.162c189.133 0 295.731 140.083 389.837 263.782 84.582 111.258 157.696 207.258 275.763 207.258zM276.992 437.35c8.090 10.394 16.179 21.094 24.422 31.898 19.968 26.317 41.165 54.016 64.102 81.715-67.686 63.181-149.248 109.773-258.355 109.773h-107.162v-143.309h107.162c67.942 0 120.934-31.898 169.83-80.077zM819.814 189.747h-47.104c-72.038 0-127.334 35.891-178.739 88.986-5.12-6.707-10.291-13.517-15.514-20.326-22.579-29.696-46.848-61.491-73.677-93.082 69.427-67.789 153.6-118.989 267.878-118.989h47.104v-122.778l204.237 206.080-204.186 206.080v-145.971z" />
<glyph unicode="&#xe916;" glyph-name="lightning" horiz-adv-x="580" d="M409.599 896l-409.599-597.332h255.999l-102.4-426.668 426.666 597.332h-255.999l85.333 426.668z" />
<glyph unicode="&#xe917;" glyph-name="list" horiz-adv-x="757" d="M66.783 896c-36.612 0-66.783-30.17-66.783-66.783v-890.435c0-36.612 30.17-66.783 66.783-66.783h623.304c36.612 0 66.783 30.17 66.783 66.783v890.435c0 36.612-30.17 66.783-66.783 66.783h-623.304zM66.783 851.479h623.304c12.718 0 22.261-9.543 22.261-22.261v-890.435c0-12.717-9.543-22.261-22.261-22.261h-623.304c-12.718 0-22.261 9.544-22.261 22.261v890.435c0 12.717 9.543 22.261 22.261 22.261zM155.826 706.783c-12.295 0-22.261-9.966-22.261-22.261s9.966-22.261 22.261-22.261h445.217c12.295 0 22.261 9.966 22.261 22.261s-9.966 22.261-22.261 22.261h-445.217zM155.826 506.435c-12.295 0-22.261-9.966-22.261-22.261s9.966-22.261 22.261-22.261h445.217c12.295 0 22.261 9.966 22.261 22.261s-9.966 22.261-22.261 22.261h-445.217zM155.826 306.087c-12.295 0-22.261-9.966-22.261-22.261s9.966-22.261 22.261-22.261h445.217c12.295 0 22.261 9.966 22.261 22.261s-9.966 22.261-22.261 22.261h-445.217zM155.826 105.739c-12.295 0-22.261-9.966-22.261-22.261s9.966-22.261 22.261-22.261h445.217c12.295 0 22.261 9.966 22.261 22.261s-9.966 22.261-22.261 22.261h-445.217z" />
<glyph unicode="&#xe918;" glyph-name="locked" d="M128-96v512h96v160c0 141.376 114.592 256 256 256h32c141.376 0 256-114.624 256-256v-160h96v-512h-736zM471.808 166.816l-23.808-166.816h96l-23.84 166.816c23.328 9.536 39.84 32.416 39.84 59.2 0 35.328-28.672 64-64 64-35.36 0-64-28.672-64-64 0-26.784 16.48-49.664 39.808-59.2zM672 560c0 97.216-78.816 176-176 176-97.216 0-176-78.784-176-176v-144h352v144z" />
<glyph unicode="&#xe919;" glyph-name="triangle-left" d="M716.8 614.4v-512l-460.8 256 460.8 256z" />
<glyph unicode="&#xe91a;" glyph-name="triangle-right" d="M768 358.4l-460.8-256v512l460.8-256z" />
<glyph unicode="&#xe91b;" glyph-name="transfer-money" horiz-adv-x="1136" d="M1021.329 559.999c10.252 0.253 18.361 8.768 18.108 19.022-0.059 2.464-0.612 4.891-1.618 7.14-79.417 183.668-258.329 304.557-458.367 309.671s-384.949-106.461-473.648-285.831c-4.923-8.999-1.618-20.283 7.379-25.204 8.999-4.923 20.283-1.618 25.205 7.379 0.247 0.452 0.476 0.914 0.685 1.385 82.325 166.481 253.746 269.931 439.41 265.183s351.583-116.811 425.293-287.281c2.926-7.075 9.897-11.627 17.552-11.465v0zM1038.342 387.287c-54.471-0.489-99.437 43.647-99.936 98.119-0.499 54.475 43.649 99.439 98.121 99.936 54.471 0.489 99.437-43.649 99.936-98.121s-43.649-99.437-98.121-99.934v0zM1038.001 424.424c34.404 0.316 61.641 28.058 61.326 62.46s-28.057 61.641-62.458 61.326-61.641-28.058-61.326-62.458c0.314-34.406 28.055-61.643 62.458-61.328zM119.003 208.018c-10.252-0.253-18.361-8.768-18.108-19.022 0.061-2.464 0.612-4.891 1.62-7.138 80.405-185.962 262.745-307.357 465.33-309.817 202.585-2.451 387.786 114.45 472.679 298.403 4.301 9.321 0.229 20.362-9.090 24.661s-20.362 0.229-24.661-9.090c-78.797-170.74-250.461-279.119-438.493-276.838-188.032 2.277-357.044 114.827-431.674 287.429-2.952 7.071-9.944 11.603-17.603 11.412v0zM98.125 381.633c54.471 0.489 99.437-43.647 99.936-98.121 0.499-54.47-43.649-99.437-98.121-99.938-54.471-0.489-99.437 43.653-99.936 98.123-0.499 54.473 43.649 99.437 98.121 99.936zM98.466 344.496c-34.402-0.316-61.641-28.057-61.326-62.456 0.316-34.406 28.058-61.641 62.46-61.33 34.404 0.316 61.641 28.062 61.328 62.462-0.318 34.404-28.060 61.641-62.462 61.324v0zM678.85 336.050c-9.804 10.084-21.83 19.050-36.101 26.847-14.237 7.813-33.905 16.352-58.936 25.539-25.034 9.186-42.791 18.91-53.256 29.201-10.483 10.26-15.69 23.913-15.69 40.944 0 18.957 5.272 33.526 15.816 43.722 10.575 10.181 25.286 15.279 44.038 15.279 18.988 0 33.968-7.103 45.048-21.309 11.002-14.143 16.589-33.589 16.589-58.212h70.996c0 38.34-9.313 69.482-27.907 93.459s-44.89 38.403-78.921 43.28v64.542h-46.972v-63.958c-33.873-3.914-60.641-16.337-80.405-37.267-19.762-20.93-29.627-47.639-29.627-80.089 0-47.921 22.745-84.112 68.377-108.533 13.62-7.464 32.831-15.469 57.502-24.227 24.671-8.697 42.239-18.468 52.816-29.311 10.573-10.875 15.845-24.639 15.845-41.181 0-17.82-5.793-32.089-17.424-42.854-11.619-10.733-28.619-16.116-50.936-16.116-22.698 0-40.266 6.785-52.672 20.251-12.406 13.496-18.673 32.579-18.673 57.186h-71.282c0-38.719 10.386-69.832 31.237-93.285 20.851-23.424 50.652-37.361 89.37-41.686v-56.902h46.658v57.218c36.162 3.694 64.4 15.847 84.619 36.414 20.251 20.535 30.4 47.319 30.4 80.405 0 17.599-2.654 32.958-7.955 46.058-5.258 12.91-12.787 24.495-22.558 34.583z" />
<glyph unicode="&#xe91d;" glyph-name="sync_problem" horiz-adv-x="912" d="M0 896l136-133.333c82.667 82.667 194.667 133.333 320 133.333 213.333 0 389.333-144 440-341.333h-117.333c-45.333 133.333-173.333 226.667-322.667 226.667-93.333 0-178.667-37.333-240-98.667l125.333-128h-341.333v341.333zM456-128c-213.333 0-389.333 144-440 341.333h117.333c45.333-133.333 173.333-226.667 322.667-226.667 93.333 0 178.667 37.333 240 98.667l-125.333 128h341.333v-341.333l-136 133.333c-82.667-82.667-194.667-133.333-320-133.333z" />
<glyph unicode="&#xe938;" glyph-name="qrcode" d="M320 832h-256v-256h256v256zM384 896v0-384h-384v384h384zM128 768h128v-128h-128zM960 832h-256v-256h256v256zM1024 896v0-384h-384v384h384zM768 768h128v-128h-128zM320 192h-256v-256h256v256zM384 256v0-384h-384v384h384zM128 128h128v-128h-128zM448 896h64v-64h-64zM512 832h64v-64h-64zM448 768h64v-64h-64zM512 704h64v-64h-64zM448 640h64v-64h-64zM512 576h64v-64h-64zM448 512h64v-64h-64zM448 384h64v-64h-64zM512 320h64v-64h-64zM448 256h64v-64h-64zM512 192h64v-64h-64zM448 128h64v-64h-64zM512 64h64v-64h-64zM448 0h64v-64h-64zM512-64h64v-64h-64zM960 384h64v-64h-64zM64 384h64v-64h-64zM128 448h64v-64h-64zM0 448h64v-64h-64zM256 448h64v-64h-64zM320 384h64v-64h-64zM384 448h64v-64h-64zM576 384h64v-64h-64zM640 448h64v-64h-64zM704 384h64v-64h-64zM768 448h64v-64h-64zM832 384h64v-64h-64zM896 448h64v-64h-64zM960 256h64v-64h-64zM576 256h64v-64h-64zM640 320h64v-64h-64zM704 256h64v-64h-64zM832 256h64v-64h-64zM896 320h64v-64h-64zM960 128h64v-64h-64zM576 128h64v-64h-64zM640 192h64v-64h-64zM768 192h64v-64h-64zM832 128h64v-64h-64zM896 192h64v-64h-64zM960 0h64v-64h-64zM640 64h64v-64h-64zM704 0h64v-64h-64zM768 64h64v-64h-64zM832 0h64v-64h-64zM640-64h64v-64h-64zM768-64h64v-64h-64zM896-64h64v-64h-64z" />
<glyph unicode="&#xe93f;" glyph-name="credit-card" d="M928 768h-832c-52.8 0-96-43.2-96-96v-576c0-52.8 43.2-96 96-96h832c52.8 0 96 43.2 96 96v576c0 52.8-43.2 96-96 96zM96 704h832c17.346 0 32-14.654 32-32v-96h-896v96c0 17.346 14.654 32 32 32zM928 64h-832c-17.346 0-32 14.654-32 32v288h896v-288c0-17.346-14.654-32-32-32zM128 256h64v-128h-64zM256 256h64v-128h-64zM384 256h64v-128h-64z" />
<glyph unicode="&#xe962;" glyph-name="floppy-disk" d="M896 896h-896v-1024h1024v896l-128 128zM512 768h128v-256h-128v256zM896 0h-768v768h64v-320h576v320h74.978l53.022-53.018v-714.982z" />
<glyph unicode="&#xe99a;" glyph-name="pie-chart" d="M448 320v448c-247.424 0-448-200.576-448-448s200.576-448 448-448 448 200.576 448 448c0 72.034-17.028 140.084-47.236 200.382l-400.764-200.382zM912.764 648.382c-73.552 146.816-225.374 247.618-400.764 247.618v-448l400.764 200.382z" />
<glyph unicode="&#xe99b;" glyph-name="stats-dots" d="M128 0h896v-128h-1024v1024h128zM288 64c-53.020 0-96 42.98-96 96s42.98 96 96 96c2.828 0 5.622-0.148 8.388-0.386l103.192 171.986c-9.84 15.070-15.58 33.062-15.58 52.402 0 53.020 42.98 96 96 96s96-42.98 96-96c0-19.342-5.74-37.332-15.58-52.402l103.192-171.986c2.766 0.238 5.56 0.386 8.388 0.386 2.136 0 4.248-0.094 6.35-0.23l170.356 298.122c-10.536 15.408-16.706 34.036-16.706 54.11 0 53.020 42.98 96 96 96s96-42.98 96-96c0-53.020-42.98-96-96-96-2.14 0-4.248 0.094-6.35 0.232l-170.356-298.124c10.536-15.406 16.706-34.036 16.706-54.11 0-53.020-42.98-96-96-96s-96 42.98-96 96c0 19.34 5.74 37.332 15.578 52.402l-103.19 171.984c-2.766-0.238-5.56-0.386-8.388-0.386s-5.622 0.146-8.388 0.386l-103.192-171.986c9.84-15.068 15.58-33.060 15.58-52.4 0-53.020-42.98-96-96-96z" />
<glyph unicode="&#xe99c;" glyph-name="stats-bars" d="M0 64h1024v-128h-1024zM128 320h128v-192h-128zM320 576h128v-448h-128zM512 384h128v-256h-128zM704 768h128v-640h-128z" />
<glyph unicode="&#xe9ac;" glyph-name="bin" d="M128 576v-640c0-35.2 28.8-64 64-64h576c35.2 0 64 28.8 64 64v640h-704zM320 0h-64v448h64v-448zM448 0h-64v448h64v-448zM576 0h-64v448h64v-448zM704 0h-64v448h64v-448zM848 768h-208v80c0 26.4-21.6 48-48 48h-224c-26.4 0-48-21.6-48-48v-80h-208c-26.4 0-48-21.6-48-48v-80h832v80c0 26.4-21.6 48-48 48zM576 768h-192v63.198h192v-63.198z" />
<glyph unicode="&#xe9cb;" glyph-name="link" d="M440.236 260.234c-13.31 0-26.616 5.076-36.77 15.23-95.134 95.136-95.134 249.934 0 345.070l192 192c46.088 46.086 107.36 71.466 172.534 71.466s126.448-25.38 172.536-71.464c95.132-95.136 95.132-249.934 0-345.070l-87.766-87.766c-20.308-20.308-53.23-20.308-73.54 0-20.306 20.306-20.306 53.232 0 73.54l87.766 87.766c54.584 54.586 54.584 143.404 0 197.99-26.442 26.442-61.6 41.004-98.996 41.004s-72.552-14.562-98.996-41.006l-192-191.998c-54.586-54.586-54.586-143.406 0-197.992 20.308-20.306 20.306-53.232 0-73.54-10.15-10.152-23.462-15.23-36.768-15.23zM256-116c-65.176 0-126.45 25.38-172.534 71.464-95.134 95.136-95.134 249.934 0 345.070l87.764 87.764c20.308 20.306 53.234 20.306 73.54 0 20.308-20.306 20.308-53.232 0-73.54l-87.764-87.764c-54.586-54.586-54.586-143.406 0-197.992 26.44-26.44 61.598-41.002 98.994-41.002s72.552 14.562 98.998 41.006l192 191.998c54.584 54.586 54.584 143.406 0 197.992-20.308 20.308-20.306 53.232 0 73.54 20.306 20.306 53.232 20.306 73.54-0.002 95.132-95.134 95.132-249.932 0.002-345.068l-192.002-192c-46.090-46.088-107.364-71.466-172.538-71.466z" />
<glyph unicode="&#xea07;" glyph-name="warning" d="M512 803.226l429.102-855.226h-858.206l429.104 855.226zM512 896c-22.070 0-44.14-14.882-60.884-44.648l-437.074-871.112c-33.486-59.532-5-108.24 63.304-108.24h869.308c68.3 0 96.792 48.708 63.3 108.24h0.002l-437.074 871.112c-16.742 29.766-38.812 44.648-60.882 44.648v0zM576 64c0-35.346-28.654-64-64-64s-64 28.654-64 64c0 35.346 28.654 64 64 64s64-28.654 64-64zM512 192c-35.346 0-64 28.654-64 64v192c0 35.346 28.654 64 64 64s64-28.654 64-64v-192c0-35.346-28.654-64-64-64z" />
<glyph unicode="&#xea0e;" glyph-name="blocked" d="M874.040 746.040c-96.706 96.702-225.28 149.96-362.040 149.96s-265.334-53.258-362.040-149.96c-96.702-96.706-149.96-225.28-149.96-362.040s53.258-265.334 149.96-362.040c96.706-96.702 225.28-149.96 362.040-149.96s265.334 53.258 362.040 149.96c96.702 96.706 149.96 225.28 149.96 362.040s-53.258 265.334-149.96 362.040zM896 384c0-82.814-26.354-159.588-71.112-222.38l-535.266 535.268c62.792 44.758 139.564 71.112 222.378 71.112 211.738 0 384-172.262 384-384zM128 384c0 82.814 26.354 159.586 71.112 222.378l535.27-535.268c-62.794-44.756-139.568-71.11-222.382-71.11-211.738 0-384 172.262-384 384z" />
<glyph unicode="&#xea36;" glyph-name="arrow-down" d="M512-96l480 480h-288v512h-384v-512h-288z" />
<glyph unicode="&#xf0c0;" glyph-name="group" horiz-adv-x="1097" d="M338.857 365.714c-59.429-1.714-113.143-27.429-151.429-73.143h-76.571c-57.143 0-110.857 27.429-110.857 90.857 0 46.286-1.714 201.714 70.857 201.714 12 0 71.429-48.571 148.571-48.571 26.286 0 51.429 4.571 76 13.143-1.714-12.571-2.857-25.143-2.857-37.714 0-52 16.571-103.429 46.286-146.286zM950.857 1.714c0-92.571-61.143-148-152.571-148h-499.429c-91.429 0-152.571 55.429-152.571 148 0 129.143 30.286 327.429 197.714 327.429 19.429 0 90.286-79.429 204.571-79.429s185.143 79.429 204.571 79.429c167.429 0 197.714-198.286 197.714-327.429zM365.714 731.428c0-80.571-65.714-146.286-146.286-146.286s-146.286 65.714-146.286 146.286 65.714 146.286 146.286 146.286 146.286-65.714 146.286-146.286zM768 512c0-121.143-98.286-219.429-219.429-219.429s-219.429 98.286-219.429 219.429 98.286 219.429 219.429 219.429 219.429-98.286 219.429-219.429zM1097.143 383.428c0-63.429-53.714-90.857-110.857-90.857h-76.571c-38.286 45.714-92 71.429-151.429 73.143 29.714 42.857 46.286 94.286 46.286 146.286 0 12.571-1.143 25.143-2.857 37.714 24.571-8.571 49.714-13.143 76-13.143 77.143 0 136.571 48.571 148.571 48.571 72.571 0 70.857-155.429 70.857-201.714zM1024 731.428c0-80.571-65.714-146.286-146.286-146.286s-146.286 65.714-146.286 146.286 65.714 146.286 146.286 146.286 146.286-65.714 146.286-146.286z" />
</font>
</defs>
</svg>
